<?xml version="1.0" standalone="no"?>
<!DOCTYPE svg PUBLIC "-//W3C//DTD SVG 20010904//EN"
 "http://www.w3.org/TR/2001/REC-SVG-20010904/DTD/svg10.dtd">
<svg version="1.0" xmlns="http://www.w3.org/2000/svg"
 width="500.000000pt" height="500.000000pt" viewBox="0 0 500.000000 500.000000"
 preserveAspectRatio="xMidYMid meet">

<g transform="translate(0.000000,500.000000) scale(0.100000,-0.100000)"
fill="#000000" stroke="none">
<path d="M146 4266 c-32 -32 -47 -111 -55 -281 -5 -120 -12 -168 -24 -192 -31
-59 -21 -233 25 -416 19 -78 20 -92 8 -120 -27 -63 -24 -149 8 -265 17 -59 33
-137 36 -175 8 -78 44 -186 91 -273 19 -33 42 -91 51 -130 24 -97 53 -158 113
-239 28 -38 74 -105 101 -147 28 -42 73 -96 101 -120 28 -24 82 -71 121 -106
104 -93 136 -108 324 -152 195 -47 297 -53 455 -26 138 23 146 17 108 -84 -28
-74 -35 -81 -66 -69 -23 9 -24 8 -19 -18 13 -60 15 -77 18 -168 2 -77 5 -92
15 -79 7 9 17 42 23 73 17 86 96 363 117 407 13 28 25 40 43 42 41 4 55 -12
55 -63 0 -25 4 -45 8 -45 5 0 6 -21 2 -47 -4 -27 -11 -120 -15 -208 -4 -88
-10 -185 -14 -215 -3 -30 -7 -69 -8 -87 -1 -20 -5 -30 -12 -26 -8 5 -7 2 0 -8
6 -8 12 -52 12 -99 1 -47 4 -116 8 -153 5 -56 3 -71 -11 -87 -12 -13 -14 -23
-7 -35 8 -16 11 -15 26 6 11 16 16 45 16 95 0 80 -13 53 140 277 77 113 129
119 142 16 26 -204 30 -279 18 -294 -7 -9 -11 -17 -9 -19 2 -1 46 9 98 23 83
22 91 26 68 34 -31 10 -41 38 -42 110 0 52 15 71 50 62 136 -37 226 3 315 140
40 62 68 83 90 70 15 -9 12 -45 -9 -90 -10 -22 -16 -46 -13 -54 3 -9 -1 -11
-16 -7 -15 5 -36 -12 -102 -84 -46 -50 -99 -100 -119 -111 -29 -16 -31 -19
-11 -15 14 3 68 12 120 21 52 9 124 24 160 34 36 10 78 19 95 20 42 2 58 21
17 21 -18 0 -32 3 -32 6 0 3 28 44 61 91 77 106 182 217 200 211 11 -4 13 -25
12 -84 l-2 -79 19 62 c10 34 30 87 44 118 14 30 24 55 23 56 -1 0 -10 2 -20 4
-10 2 -25 12 -32 22 -12 16 -11 19 8 25 12 3 34 6 48 7 24 1 34 16 98 143 91
184 112 221 128 231 7 4 13 16 13 25 0 9 11 22 24 28 23 11 24 9 30 -30 3 -22
6 -103 6 -179 l0 -137 27 6 c16 4 42 13 58 20 l30 13 -27 1 c-50 0 -75 71 -43
117 15 21 23 22 148 22 117 -1 150 3 290 35 189 43 245 68 336 149 38 34 96
86 130 115 33 29 77 80 98 113 21 33 66 98 100 145 59 80 111 191 128 274 4
19 24 69 45 110 52 104 78 190 89 292 6 48 14 96 19 105 30 58 55 264 33 277
-22 14 -20 77 4 177 14 57 32 160 40 228 l15 123 -30 62 c-27 55 -30 70 -30
158 0 136 -17 246 -43 285 -12 18 -25 33 -28 33 -14 0 -75 -80 -148 -195 -139
-216 -318 -402 -510 -527 -40 -26 -85 -48 -98 -48 -14 0 -39 11 -57 25 -17 14
-36 29 -42 34 -12 10 -58 -37 -93 -97 -35 -59 -82 -88 -306 -192 -269 -124
-350 -167 -414 -219 -30 -24 -66 -50 -80 -58 -23 -12 -28 -11 -43 8 -17 19
-18 55 -18 416 0 280 -3 401 -12 416 -13 25 -38 52 -38 41 0 -3 -7 0 -17 7
-13 11 -91 15 -387 17 -355 4 -496 -1 -496 -17 0 -4 196 -7 435 -6 423 0 435
-1 449 -20 20 -26 21 -79 2 -72 -8 3 -17 3 -20 -1 -7 -7 -25 -11 -73 -19 -26
-4 -33 -2 -33 11 0 20 -19 21 -26 1 -4 -8 -17 -15 -30 -15 -20 0 -24 5 -24 31
0 26 -3 30 -22 27 -19 -2 -22 -8 -20 -30 3 -27 1 -28 -37 -28 -37 0 -41 2 -41
25 0 16 -6 25 -15 25 -10 0 -15 -10 -15 -31 0 -20 -4 -29 -12 -26 -8 2 -12 15
-10 30 3 24 0 27 -27 27 -25 0 -30 -4 -33 -27 -2 -22 -9 -29 -32 -31 -48 -6
-76 6 -76 32 0 20 -6 24 -46 30 -26 3 -91 6 -144 6 -93 0 -98 -1 -93 -20 3
-11 10 -21 17 -21 6 -1 16 -2 21 -4 6 -1 28 -3 49 -3 22 -1 37 -5 33 -8 -3 -3
-47 -3 -97 1 -86 7 -90 8 -97 33 -3 14 0 34 6 45 21 32 -3 42 -28 11 -21 -26
-21 -34 -21 -408 -1 -345 -6 -456 -23 -473 -14 -13 -56 9 -117 62 -64 55 -174
114 -535 285 -132 62 -180 97 -217 160 -33 55 -69 90 -82 79 -6 -5 -25 -20
-42 -34 -18 -14 -43 -25 -57 -25 -31 0 -171 93 -279 187 -134 116 -299 322
-397 494 -17 31 -41 63 -54 71 -20 13 -24 12 -41 -6z m155 -230 c137 -207 285
-352 522 -509 75 -51 133 -93 128 -95 -10 -3 -145 79 -236 144 l-50 36 47 -44
c26 -24 90 -70 143 -103 52 -32 93 -60 91 -63 -16 -15 -246 138 -339 226 -25
23 -50 42 -55 42 -14 0 3 -79 33 -145 14 -32 23 -60 21 -62 -2 -2 -40 27 -83
66 -82 72 -144 141 -203 223 -18 27 -36 46 -38 43 -12 -12 95 -148 185 -235
261 -251 357 -326 524 -409 118 -59 153 -80 146 -87 -5 -6 -219 84 -226 94 -3
5 -62 38 -131 72 -132 66 -272 153 -305 190 l-20 23 23 -12 c44 -23 33 -4 -19
34 -66 47 -147 123 -161 150 -7 13 3 7 28 -16 68 -62 80 -65 33 -9 -73 86
-125 173 -154 257 -43 124 -46 126 -40 31 13 -190 93 -342 243 -461 81 -64
101 -77 217 -139 50 -26 87 -48 84 -48 -3 0 -45 18 -93 40 -200 93 -336 210
-405 351 -51 105 -71 206 -71 353 0 149 7 164 35 81 12 -36 29 -73 38 -82 9
-10 3 18 -19 73 -18 49 -33 105 -33 124 0 34 1 34 11 10 61 -138 120 -236 183
-305 30 -33 26 -25 -19 41 -52 76 -114 190 -150 278 -24 58 -19 57 17 -3 18
-30 62 -100 98 -155z m4477 143 c-20 -57 -87 -179 -146 -264 -36 -52 -46 -71
-28 -55 41 37 129 174 170 263 19 42 37 77 41 77 9 0 -20 -110 -51 -194 -24
-64 -8 -51 19 16 14 35 30 74 34 88 12 38 19 -93 12 -220 -14 -234 -115 -404
-315 -533 -82 -53 -194 -110 -201 -103 -3 2 19 17 49 32 214 108 360 260 414
429 26 81 44 243 27 232 -6 -4 -14 -24 -17 -44 -12 -66 -91 -215 -155 -290
-34 -40 -59 -73 -56 -73 3 0 29 21 57 48 28 26 46 38 40 27 -13 -25 -79 -88
-155 -149 -58 -46 -65 -56 -24 -35 22 12 22 12 3 -9 -34 -39 -164 -122 -288
-184 -68 -34 -138 -72 -156 -84 -18 -12 -67 -36 -110 -52 -42 -17 -86 -34 -96
-38 -14 -5 -17 -4 -12 5 4 6 62 39 129 73 149 74 218 120 311 207 39 37 96 88
128 114 119 99 242 238 284 320 25 47 9 30 -55 -58 -53 -72 -223 -243 -266
-268 -9 -5 -3 16 15 55 29 61 54 158 41 158 -3 0 -37 -27 -76 -61 -105 -91
-307 -221 -321 -206 -3 2 21 19 53 37 85 48 250 170 230 170 -5 0 -45 -27 -90
-59 -98 -70 -187 -124 -195 -116 -7 6 -14 0 88 65 280 177 477 378 635 652 42
73 52 81 33 27z m-2408 -394 c0 -9 -6 -12 -15 -9 -8 4 -12 10 -9 15 8 14 24
10 24 -6z m580 -37 c0 -10 -147 -21 -206 -15 -30 3 -56 1 -59 -4 -9 -13 -69
-11 -83 3 -10 10 -15 10 -21 -1 -6 -8 -14 -10 -22 -5 -19 11 -49 13 -55 2 -7
-11 -112 -10 -119 2 -4 6 -68 10 -158 11 -84 0 -160 3 -169 7 -10 4 187 7 437
7 250 0 455 -3 455 -7z m-595 -53 c22 -2 107 -4 188 -4 82 -1 146 -5 143 -9
-10 -16 -587 1 -631 19 -19 7 212 3 300 -6z m595 5 c0 -5 -12 -10 -27 -11 -16
0 -64 -4 -108 -8 -59 -6 -85 -4 -99 5 -17 11 -7 14 70 17 49 1 106 4 127 5 20
1 37 -2 37 -8z m-2840 -9 c0 -5 23 -44 51 -87 104 -159 257 -288 440 -373 46
-21 95 -42 109 -46 68 -20 230 -88 230 -96 0 -5 -3 -9 -6 -9 -23 0 -198 61
-293 101 -63 27 -116 48 -118 46 -2 -3 12 -28 32 -57 20 -29 34 -54 32 -56
-10 -10 -199 129 -273 200 -98 95 -112 94 -21 -1 69 -72 166 -148 271 -212 37
-23 95 -65 128 -92 65 -54 142 -96 226 -124 29 -9 51 -19 48 -22 -10 -10 -136
10 -136 21 0 7 -33 22 -72 35 -113 35 -105 31 -88 41 13 8 12 10 0 13 -107 33
-247 93 -238 103 3 2 26 -5 52 -17 67 -29 68 -17 2 17 -110 55 -200 135 -271
239 -26 39 -22 9 8 -55 61 -131 234 -270 405 -325 71 -23 59 -31 -15 -10 -216
63 -383 225 -458 446 -30 87 -31 102 -5 70 26 -31 25 -21 -4 37 -13 26 -27 58
-31 72 -6 21 -2 19 29 -15 l37 -40 -41 64 c-22 35 -40 74 -40 87 0 12 -3 29
-6 38 -3 9 -1 16 5 16 6 0 11 -4 11 -9z m4764 -35 c-3 -20 -24 -63 -45 -96
-21 -33 -34 -60 -29 -60 5 0 17 14 27 30 24 42 36 38 18 -6 -8 -20 -12 -46 -9
-58 7 -29 -27 -130 -74 -221 -50 -98 -162 -207 -267 -262 -76 -39 -192 -80
-201 -71 -2 3 15 11 38 18 53 15 169 73 226 112 92 63 179 171 211 263 10 28
9 28 -21 -10 -65 -80 -158 -161 -236 -205 -88 -49 -100 -63 -27 -31 26 12 53
21 59 21 21 -1 -99 -59 -178 -86 -47 -16 -73 -29 -66 -34 16 -10 8 -14 -77
-39 -75 -22 -104 -41 -52 -33 16 2 29 2 29 -1 0 -7 -165 -29 -187 -25 -11 3 3
11 37 21 71 22 176 81 243 135 28 24 100 74 158 111 104 67 239 185 282 245
11 17 -19 -7 -69 -54 -85 -80 -270 -217 -280 -207 -2 2 11 28 31 57 20 29 34
54 32 56 -2 2 -46 -15 -98 -37 -93 -41 -289 -109 -312 -109 -23 0 18 27 73 48
30 12 102 40 160 62 194 75 307 147 426 271 63 66 95 109 158 212 22 36 29 30
20 -17z m-2374 -11 c140 0 299 4 353 8 61 5 97 5 97 -1 0 -13 -136 -25 -307
-26 -78 -1 -144 -4 -147 -7 -3 -3 -34 -2 -68 2 -35 4 -128 11 -208 15 -80 4
-154 10 -165 15 -11 4 27 5 85 1 58 -4 220 -7 360 -7z m-2287 -65 c16 -28 26
-50 24 -50 -5 0 -67 87 -67 94 0 19 19 0 43 -44z m452 -25 c65 -53 161 -116
244 -160 53 -29 141 -118 141 -142 0 -17 -3 -17 -63 13 -71 36 -207 126 -236
158 -14 14 -29 26 -35 26 -16 0 45 -59 109 -105 33 -23 99 -64 147 -90 86 -48
122 -85 101 -106 -13 -13 -73 11 -118 48 -19 16 -44 36 -57 46 -17 14 -18 17
-5 13 28 -9 10 12 -26 29 -54 25 -145 103 -190 160 -23 30 -43 52 -45 50 -10
-10 40 -78 109 -147 43 -44 69 -72 56 -63 -48 33 -139 131 -166 180 -24 42
-61 142 -61 163 0 3 8 -2 18 -10 9 -8 44 -37 77 -63z m3720 13 c-34 -103 -83
-174 -171 -249 -22 -19 -10 -2 27 36 65 70 116 142 106 151 -3 3 -19 -15 -36
-39 -39 -57 -131 -139 -198 -178 -50 -29 -71 -48 -38 -35 8 3 15 1 15 -4 0 -5
-9 -12 -20 -15 -11 -3 -26 -13 -34 -20 -52 -53 -146 -86 -146 -52 0 19 48 61
100 87 84 42 195 119 240 166 l45 47 -60 -47 c-107 -84 -279 -185 -292 -172
-9 9 48 85 86 115 20 16 56 39 81 51 52 26 207 133 265 184 22 19 42 33 44 31
1 -2 -5 -28 -14 -57z m-2168 31 c152 -12 573 -6 664 9 25 5 51 6 57 4 9 -3 12
-98 12 -378 0 -328 -2 -373 -15 -368 -10 4 -15 21 -16 53 -3 97 -17 108 -18
14 0 -51 -4 -93 -7 -93 -3 0 -41 37 -85 83 l-79 82 0 289 c0 259 -2 288 -16
282 -9 -3 -19 -6 -22 -6 -4 0 -7 -125 -7 -277 l0 -278 -25 1 c-14 1 -64 6
-113 13 -79 10 -96 10 -178 -10 -70 -16 -106 -31 -157 -66 -37 -25 -61 -39
-54 -32 7 8 13 43 13 88 1 73 2 74 10 31 5 -25 10 -51 11 -58 2 -15 7 -14 101
24 l67 28 1 65 c1 74 7 72 11 -3 2 -30 8 -51 16 -54 10 -3 13 14 12 79 -1 46
-1 88 -1 93 1 5 11 1 24 -10 12 -11 34 -25 50 -32 24 -10 27 -17 27 -57 0 -34
-4 -47 -17 -53 -13 -5 -7 -8 22 -12 22 -3 43 -4 48 -2 4 2 7 37 7 78 0 43 4
74 10 74 6 0 10 -33 10 -79 0 -61 3 -80 15 -85 13 -5 15 29 15 264 0 233 -2
270 -15 270 -12 0 -15 -18 -15 -105 0 -71 -4 -105 -11 -105 -8 0 -7 -6 2 -17
11 -13 11 -15 1 -9 -35 21 -125 22 -151 2 -11 -8 -13 -8 -7 2 4 7 1 12 -8 12
-13 0 -16 19 -18 107 -2 74 -7 108 -15 111 -10 3 -14 -19 -15 -85 l-2 -88 -3
88 c-6 143 -23 101 -25 -60 l-1 -148 -7 105 c-4 58 -8 126 -9 151 l-1 47 -63
0 c-34 0 -69 2 -77 4 -11 2 -16 -9 -20 -42 l-5 -45 -8 48 c-5 26 -12 47 -18
47 -5 0 -9 -141 -8 -357 0 -197 3 -352 6 -345 2 6 10 12 16 12 6 0 -2 -13 -18
-30 -16 -16 -36 -30 -46 -30 -41 0 -42 13 -36 403 4 204 6 374 7 376 0 2 6 1
14 -2 8 -3 81 -11 163 -18z m2556 -20 c-28 -47 -45 -56 -20 -10 12 22 26 41
30 41 5 0 0 -14 -10 -31z m-3724 -75 c20 -55 61 -94 183 -176 97 -66 188 -115
188 -103 0 2 -29 20 -65 40 -36 20 -65 38 -65 40 0 15 183 -78 313 -158 59
-37 107 -63 107 -59 0 5 -18 19 -41 31 -22 13 -38 25 -35 28 7 7 138 -71 156
-91 7 -9 18 -16 25 -16 18 0 94 -86 111 -125 16 -39 18 -57 4 -35 -7 11 -10
-5 -10 -52 0 -38 -1 -68 -2 -68 -2 0 -24 7 -50 14 -104 32 -169 -18 -167 -126
l1 -53 8 54 c9 58 36 104 66 110 14 2 11 -5 -13 -33 -53 -60 -55 -130 -6 -195
38 -49 82 -64 178 -59 66 4 93 11 152 40 40 20 85 45 100 55 15 11 35 24 43
28 31 18 -12 -24 -59 -58 -51 -37 -190 -86 -248 -88 l-38 -1 40 -8 c30 -6 52
-3 88 11 55 22 60 23 52 9 -13 -22 34 6 110 63 73 56 86 56 25 0 -155 -141
-355 -174 -469 -77 -57 50 -84 114 -79 191 5 78 41 134 110 171 l48 26 25 -24
c14 -13 25 -18 25 -12 0 6 -4 13 -9 17 -6 3 -13 26 -17 50 -3 25 -10 42 -15
39 -8 -5 -13 9 -10 28 2 18 -86 77 -187 125 -62 29 -114 53 -117 53 -14 0
-228 96 -285 128 -90 49 -157 115 -172 166 -10 34 -13 37 -16 18 -6 -37 17
-79 67 -123 62 -55 140 -97 301 -162 227 -93 256 -105 294 -128 37 -21 50 -37
19 -21 -63 32 -123 57 -233 97 -301 110 -401 170 -452 270 -21 40 -28 119 -14
163 10 31 20 27 35 -14z m2915 -26 c25 -140 -104 -260 -390 -362 -55 -20 -134
-49 -174 -66 -40 -16 -78 -30 -83 -30 -25 0 14 21 113 60 187 73 319 132 368
162 93 59 143 120 141 175 0 25 -2 23 -16 -14 -30 -87 -170 -180 -413 -277
-185 -73 -289 -127 -331 -172 l-24 -27 25 13 25 13 -19 -22 c-11 -11 -25 -21
-31 -21 -7 0 -15 -19 -19 -42 -4 -23 -12 -48 -18 -55 -8 -9 -7 -13 2 -13 7 0
18 7 24 15 10 14 15 14 46 1 86 -36 129 -101 130 -195 0 -133 -104 -231 -247
-231 -103 0 -242 67 -323 156 -39 42 -32 38 53 -30 44 -35 64 -45 80 -41 15 4
18 3 9 -3 -11 -7 -11 -10 3 -15 9 -4 13 -3 10 3 -9 14 -3 13 55 -10 39 -15 58
-18 87 -11 l38 9 -38 1 c-52 1 -195 49 -232 77 -81 61 -104 91 -32 41 15 -10
60 -35 100 -55 60 -29 86 -36 154 -40 54 -3 93 0 113 8 31 13 90 73 90 91 0 6
9 22 20 36 11 14 20 34 20 44 0 35 -32 98 -57 115 -30 19 -93 21 -135 3 -16
-6 -30 -10 -33 -8 -2 3 -5 40 -7 84 -2 74 -1 83 25 116 42 55 249 201 264 186
3 -3 -8 -12 -24 -21 -16 -8 -36 -23 -44 -32 -11 -14 -5 -12 26 6 22 13 47 28
55 35 24 18 149 90 218 124 122 62 153 65 47 6 -36 -20 -65 -39 -65 -41 0 -21
268 147 323 202 15 14 36 46 48 71 24 49 31 46 43 -19z m-1544 -208 c0 -58 91
-82 129 -34 12 15 21 33 21 40 0 8 5 14 10 14 14 0 12 -27 -5 -59 -18 -35 -63
-55 -104 -46 -50 11 -109 105 -66 105 8 0 15 -9 15 -20z m-1161 -125 c43 -18
134 -52 202 -75 165 -55 279 -112 324 -161 32 -36 44 -59 29 -59 -3 0 -17 14
-31 31 -33 39 -115 80 -228 114 -50 14 -121 35 -158 47 -92 27 -191 73 -216
100 -12 12 -21 17 -21 11 0 -39 150 -109 329 -154 158 -40 291 -107 291 -147
0 -12 -7 -9 -27 10 -41 38 -83 56 -158 68 -37 6 -80 17 -96 26 -17 8 -29 10
-29 4 0 -18 -38 -10 -45 9 -4 13 -19 22 -48 26 -40 7 -142 55 -197 92 l-25 17
24 -27 c14 -15 20 -27 14 -27 -17 0 -70 66 -98 120 -39 77 -34 85 30 44 31
-19 91 -50 134 -69z m2612 17 c-16 -32 -47 -74 -67 -92 -43 -38 -149 -90 -181
-90 -13 0 -23 -4 -23 -10 0 -5 3 -10 8 -10 20 1 122 41 162 64 25 14 53 26 62
26 10 0 52 11 95 25 42 13 79 22 81 20 8 -8 -47 -92 -60 -92 -7 0 -34 -14 -60
-32 -48 -33 -151 -72 -223 -85 -22 -4 -44 -11 -50 -16 -5 -4 -64 -10 -130 -12
-99 -3 -128 -7 -166 -26 -47 -23 -84 -28 -93 -13 -7 11 79 48 141 60 26 6 89
15 138 21 171 21 280 43 328 67 26 13 47 26 47 29 0 2 -8 0 -19 -5 -60 -32
-149 -51 -359 -76 -73 -9 -160 -24 -194 -35 -33 -10 -57 -15 -52 -10 18 17
110 48 169 55 33 5 51 10 41 13 -45 10 -169 -21 -218 -55 -54 -36 -58 -37 -58
-24 0 5 24 25 53 44 48 33 143 69 302 113 118 32 196 68 238 107 48 44 42 42
-31 -7 -46 -31 -123 -60 -267 -101 -183 -51 -232 -73 -288 -127 -22 -21 -42
-36 -44 -34 -3 2 6 20 19 39 39 61 134 108 388 194 119 40 248 99 300 136 46
33 50 16 11 -61z m419 78 c-8 -5 -19 -10 -25 -10 -5 0 -3 5 5 10 8 5 20 10 25
10 6 0 3 -5 -5 -10z m-3654 -76 c33 -15 117 -46 187 -69 127 -42 167 -65 167
-92 0 -18 -29 -12 -155 29 -49 16 -97 31 -105 34 -8 3 11 -9 42 -26 32 -17 94
-39 138 -49 84 -21 160 -57 168 -80 4 -11 -2 -12 -24 -6 -16 4 -58 9 -94 10
-68 2 -120 17 -120 35 0 6 -26 27 -57 46 -32 20 -75 53 -95 72 -21 20 -38 31
-38 25 0 -11 66 -75 110 -106 l25 -17 -30 14 c-53 25 -217 206 -187 206 5 0
36 -12 68 -26z m3732 -36 c-41 -58 -151 -159 -173 -157 -5 0 -1 6 9 12 35 21
97 80 108 101 8 16 4 14 -15 -6 -14 -15 -58 -48 -97 -74 -39 -25 -69 -48 -66
-51 13 -13 -53 -36 -109 -38 -33 -1 -77 -5 -99 -10 -31 -6 -38 -5 -34 6 7 23
77 57 153 75 65 15 210 73 202 80 -2 2 -32 -7 -68 -21 -68 -27 -189 -58 -196
-51 -8 7 16 45 35 55 9 5 74 28 142 51 69 22 148 52 175 65 28 13 56 24 63 24
7 1 -6 -27 -30 -61z m-4187 15 c117 -109 266 -193 419 -236 47 -14 155 -37
240 -52 149 -26 168 -30 159 -39 -8 -8 -233 15 -327 33 -53 10 -99 17 -102 14
-3 -3 19 -27 49 -54 30 -27 50 -49 44 -49 -38 0 -265 100 -338 150 -62 42 -73
44 -33 8 53 -49 196 -121 333 -167 66 -23 147 -54 180 -70 33 -16 96 -37 140
-45 119 -24 125 -26 125 -35 0 -16 -193 -47 -332 -54 -37 -2 -70 -6 -73 -9 -4
-3 10 -16 29 -28 20 -12 36 -25 36 -30 0 -11 -191 36 -263 65 -70 28 -88 26
-30 -3 68 -35 180 -71 270 -87 48 -9 120 -23 160 -31 85 -17 216 -18 297 -3
32 6 60 8 63 5 6 -5 -84 -52 -137 -71 -35 -13 -35 -13 -11 -22 14 -5 20 -12
15 -15 -24 -14 -97 -32 -189 -48 -95 -16 -99 -18 -72 -30 15 -7 27 -17 27 -22
0 -10 -116 -2 -193 13 -76 15 -87 9 -22 -12 33 -11 110 -24 170 -29 61 -5 142
-18 180 -29 39 -11 83 -20 100 -20 42 -1 20 -17 -43 -30 -74 -15 -108 -13 -57
4 l40 13 -60 -5 c-33 -2 -66 -7 -74 -9 -9 -3 -11 1 -7 12 4 11 1 14 -12 10
-26 -9 -191 -10 -199 -2 -3 3 10 6 30 6 20 0 39 5 42 10 4 6 -11 10 -37 10
-80 0 -175 34 -246 87 -49 37 -49 22 0 -27 95 -95 220 -136 385 -128 72 4 96
2 100 -8 2 -7 25 -21 49 -31 24 -10 44 -21 44 -24 0 -10 -108 -38 -175 -45
-51 -6 -56 -9 -32 -15 31 -8 143 5 197 23 20 7 75 11 125 9 90 -2 100 0 210
45 39 16 -6 -26 -62 -58 -29 -16 -53 -33 -53 -38 0 -4 19 -11 43 -16 l42 -9
-49 -29 c-27 -15 -83 -41 -125 -57 l-76 -28 50 2 c28 2 55 6 60 9 51 32 200
98 240 108 28 6 60 18 73 26 12 8 34 22 48 31 27 17 27 17 15 -5 -6 -12 -25
-32 -41 -44 -40 -29 -38 -38 12 -38 l42 0 -35 -36 c-18 -19 -55 -49 -81 -66
-54 -34 -60 -42 -21 -27 34 13 110 68 148 109 17 18 57 44 90 59 33 16 73 43
88 60 38 44 47 31 13 -19 -30 -46 -31 -50 -11 -50 22 0 19 -14 -11 -50 -15
-17 -24 -33 -22 -36 6 -5 78 72 78 85 0 4 22 22 49 39 28 17 60 46 73 66 28
44 42 46 33 6 -5 -25 -4 -29 9 -24 19 7 20 0 6 -27 -6 -10 -8 -19 -6 -19 3 0
17 23 31 50 14 28 31 51 38 52 6 0 17 2 24 2 6 1 21 10 34 21 l22 20 -5 -22
c-10 -40 9 -25 29 22 10 26 23 43 30 41 7 -3 31 17 53 45 48 56 70 63 70 21 0
-20 -12 -40 -41 -67 -35 -34 -41 -36 -36 -17 3 12 4 22 3 22 -2 0 -17 -22 -34
-48 -32 -50 -122 -123 -122 -100 -1 7 -12 0 -26 -17 -15 -16 -24 -22 -20 -12
3 9 9 25 12 35 4 9 -9 -5 -29 -33 -40 -57 -104 -120 -94 -92 4 9 10 25 13 35
3 9 -10 -1 -30 -23 l-37 -40 21 43 c24 50 20 54 -10 10 -20 -30 -21 -31 -16
-8 l5 25 -20 -25 c-67 -84 -92 -111 -96 -106 -3 3 0 14 8 23 8 10 -6 2 -31
-18 -50 -40 -160 -105 -160 -94 0 4 25 35 56 68 82 91 99 133 19 48 -48 -51
-87 -81 -137 -106 -39 -19 -78 -35 -87 -35 -9 1 5 9 31 19 74 29 175 108 200
156 6 12 -4 6 -26 -14 -20 -19 -36 -31 -36 -27 0 4 -27 -14 -60 -40 -32 -25
-65 -44 -73 -41 -7 3 -38 -3 -68 -14 -30 -10 -78 -18 -107 -19 -87 0 -50 -20
41 -21 81 -2 81 -2 27 -9 -49 -7 -182 4 -203 17 -5 3 28 17 73 33 80 28 125
55 188 113 50 48 38 52 -20 6 -136 -107 -297 -144 -452 -104 -45 12 -146 59
-146 68 0 1 56 2 124 2 94 0 128 3 138 14 11 12 10 13 -6 7 -56 -20 -256 -18
-256 2 0 4 48 7 107 7 118 0 200 22 272 71 47 32 37 30 -41 -6 -176 -83 -384
-53 -525 74 -54 49 -54 64 0 41 20 -8 47 -15 59 -15 14 1 -4 11 -42 26 -36 14
-69 30 -75 36 -7 8 -4 9 10 3 83 -32 270 -47 305 -25 10 7 -11 10 -70 10 -133
1 -256 53 -341 147 -24 26 -89 127 -89 138 0 3 17 -3 38 -14 45 -23 138 -51
166 -50 12 0 -8 10 -44 23 -80 28 -162 69 -179 90 -18 21 2 21 33 1 12 -8 61
-29 107 -47 71 -26 102 -32 199 -36 63 -2 131 0 150 6 31 9 25 10 -50 11 -248
4 -410 82 -504 244 -31 52 -69 147 -60 147 4 0 22 -14 41 -30 18 -17 57 -42
86 -56 61 -31 55 -24 -34 39 -64 45 -125 105 -115 114 2 3 35 -21 73 -52 127
-105 275 -157 441 -154 61 1 70 3 42 9 -24 5 -2 8 68 8 57 0 106 2 108 5 3 2
-30 8 -73 12 -83 8 -102 13 -83 25 6 4 -29 10 -77 13 -49 4 -115 15 -148 26
-57 19 -51 20 40 5 58 -10 38 4 -31 21 -83 21 -211 86 -267 136 -27 23 -50 39
-53 37 -9 -10 74 -105 122 -140 66 -49 151 -85 264 -113 56 -14 82 -24 64 -24
-52 -1 -185 37 -261 75 -125 63 -227 187 -267 323 -22 75 -21 77 22 43 36 -29
122 -77 122 -68 0 2 -28 24 -62 49 -79 56 -106 85 -118 125 -12 42 1 41 51 -5z
m4622 -55 c-21 -22 -62 -55 -90 -74 -29 -19 -53 -37 -53 -40 0 -9 85 39 123
69 21 16 40 28 42 26 6 -7 -43 -137 -72 -191 -42 -77 -132 -161 -216 -203 -74
-36 -211 -76 -256 -74 -14 0 15 11 65 24 115 29 204 70 272 124 51 41 117 119
107 129 -2 3 -22 -11 -44 -31 -73 -66 -155 -108 -296 -151 -48 -15 -48 -15
-10 -10 22 2 54 7 70 9 17 3 6 -4 -25 -15 -30 -11 -94 -23 -142 -27 -62 -4
-85 -9 -82 -18 4 -9 -20 -15 -83 -20 -113 -10 -76 -24 52 -19 64 2 79 1 50 -5
-35 -7 -30 -8 37 -10 179 -3 336 56 470 177 21 19 41 32 45 28 10 -10 -64 -82
-127 -124 -77 -51 -83 -58 -23 -28 29 14 68 40 88 57 20 18 38 29 42 26 3 -4
-15 -49 -41 -101 -98 -197 -254 -282 -526 -287 -119 -2 -65 -17 65 -18 112 -1
179 13 289 60 107 46 103 45 82 21 -22 -25 -106 -67 -186 -93 -30 -10 -46 -18
-34 -18 28 -1 121 27 167 50 20 11 37 16 37 13 0 -13 -63 -109 -94 -142 -83
-91 -203 -141 -336 -142 -59 0 -80 -3 -70 -10 36 -23 217 -8 305 25 16 6 17 5
9 -4 -7 -7 -40 -23 -75 -36 -37 -14 -54 -24 -41 -24 12 -1 39 6 59 14 54 23
54 8 -1 -41 -140 -128 -346 -157 -525 -74 -76 36 -87 38 -41 7 64 -44 149 -69
255 -76 87 -6 95 -8 61 -15 -36 -8 -152 -2 -193 9 -10 3 -2 -2 17 -11 26 -12
58 -15 132 -12 54 1 98 1 98 -2 0 -10 -88 -51 -141 -65 -150 -40 -312 -2 -447
104 -65 52 -68 37 -4 -19 50 -46 165 -106 219 -116 18 -3 33 -9 33 -13 0 -15
-154 -30 -210 -22 -54 8 -54 9 33 10 48 0 87 5 87 10 0 4 -30 11 -67 13 -46 3
-85 14 -120 32 -57 29 -79 34 -49 11 11 -8 15 -15 9 -15 -6 0 -35 18 -63 41
-29 23 -58 42 -66 43 -8 1 -27 15 -44 31 -42 40 -38 23 6 -25 20 -22 34 -43
32 -46 -3 -3 -31 23 -63 58 -58 64 -58 46 0 -27 46 -58 49 -65 26 -65 -11 0
-40 16 -65 35 -25 19 -52 32 -59 29 -8 -3 -29 15 -52 43 -53 66 -59 72 -52 48
5 -13 -3 -8 -24 15 l-31 35 21 -45 22 -45 -37 40 c-20 22 -33 32 -30 23 3 -10
9 -26 12 -35 11 -28 -72 55 -92 93 -24 43 -40 45 -18 2 l17 -33 -21 19 c-12
10 -25 28 -28 40 -6 18 -8 19 -13 4 -5 -15 -11 -13 -48 15 -23 18 -54 51 -69
75 -33 51 -44 60 -37 30 5 -19 -1 -17 -36 17 -29 27 -41 47 -41 67 0 47 32 34
83 -34 15 -21 33 -35 40 -32 8 3 18 -9 25 -29 6 -18 18 -42 26 -52 13 -18 14
-18 9 10 l-6 30 22 -20 c12 -11 32 -20 44 -20 16 0 29 -14 48 -48 14 -26 32
-53 39 -60 8 -7 7 -1 -3 15 -22 35 -21 41 1 34 16 -5 18 -2 14 26 l-4 33 26
-37 c14 -20 48 -51 76 -69 27 -18 50 -35 50 -39 0 -12 71 -90 82 -90 5 0 -4
16 -21 35 -34 39 -39 55 -16 55 19 0 19 3 -5 42 -30 50 -24 67 10 27 16 -21
52 -46 82 -59 29 -12 81 -49 116 -81 62 -59 95 -80 142 -94 14 -4 -2 11 -35
33 -33 21 -73 53 -89 71 l-30 31 42 0 c23 0 42 3 42 6 0 3 -16 21 -37 40 -45
43 -38 54 14 20 21 -14 61 -30 88 -36 40 -10 189 -76 240 -108 5 -3 32 -7 60
-8 l50 -3 -53 19 c-61 22 -181 80 -188 91 -2 4 16 11 41 14 25 4 45 10 45 14
0 4 -16 15 -36 25 -40 19 -107 67 -101 73 2 2 25 -6 51 -18 63 -27 135 -38
196 -28 36 6 62 4 90 -6 56 -20 175 -35 207 -26 24 6 19 9 -32 15 -67 7 -175
35 -175 45 0 3 21 14 46 25 25 10 48 24 50 31 4 9 32 11 102 7 110 -5 182 7
262 44 61 28 134 85 152 117 11 21 11 21 -13 4 -65 -47 -167 -88 -237 -94 -73
-6 -91 -23 -25 -23 20 0 33 -3 30 -6 -8 -8 -173 -7 -199 2 -13 4 -16 1 -12
-10 4 -11 2 -15 -7 -12 -8 2 -41 7 -74 9 l-60 5 40 -13 c51 -17 17 -19 -57 -4
-62 13 -86 29 -42 29 16 0 61 9 99 20 39 12 102 23 140 26 98 6 186 21 231 39
l39 15 -35 -5 c-112 -18 -234 -25 -240 -15 -4 7 -31 1 -81 -19 -194 -76 -335
-39 -539 143 -104 93 -177 173 -167 183 11 11 47 -10 108 -63 97 -85 155 -120
264 -160 55 -20 123 -45 150 -55 28 -10 59 -18 70 -18 11 0 -18 14 -65 32
l-85 31 36 9 c29 7 54 3 120 -18 46 -14 107 -29 134 -32 28 -3 53 -10 56 -16
4 -5 16 -4 30 4 22 12 16 14 -76 30 -101 16 -185 38 -185 47 0 3 8 11 18 18
14 11 14 13 2 14 -25 0 -166 72 -153 77 7 3 36 0 63 -6 71 -15 219 -14 298 3
37 8 116 24 176 36 111 21 248 70 276 98 17 17 22 18 -74 -20 -59 -23 -246
-68 -246 -59 0 3 16 17 35 30 19 13 35 28 35 33 0 5 -3 7 -8 4 -11 -7 -216 11
-311 28 -126 22 -124 30 14 58 53 10 136 36 183 57 48 21 125 51 172 66 109
35 266 115 316 161 42 38 32 36 -31 -6 -73 -49 -298 -150 -335 -150 -6 0 13
22 42 49 29 27 51 51 48 54 -3 3 -49 -4 -102 -14 -94 -18 -319 -41 -327 -33
-9 9 10 13 159 39 315 55 459 116 646 273 58 49 59 50 62 25 3 -19 -7 -36 -35
-65z m-4483 -18 l35 -31 -31 15 c-17 8 -36 22 -43 30 -23 27 3 18 39 -14z
m725 5 c44 -14 86 -25 94 -25 8 0 49 -18 92 -40 43 -22 86 -40 96 -40 11 0 23
-4 28 -9 6 -5 60 -16 120 -25 121 -17 200 -37 230 -60 15 -11 3 -10 -45 5 -64
20 -128 30 -345 54 -69 8 -142 29 -200 58 -34 17 -38 17 -26 3 32 -39 120 -64
301 -86 178 -22 269 -40 314 -62 25 -12 43 -25 40 -30 -9 -15 -52 -8 -90 14
-32 19 -56 23 -158 26 -67 2 -130 7 -141 12 -11 5 -51 17 -89 26 -91 22 -131
39 -188 80 -53 38 -63 37 -20 -2 34 -32 142 -83 196 -94 30 -6 34 -8 14 -9
-38 -1 -139 32 -180 60 -19 13 -46 38 -60 54 -38 47 -78 116 -65 115 1 0 38
-11 82 -25z m3625 -5 c-19 -17 -39 -30 -44 -30 -6 0 5 13 24 30 19 16 40 29
45 29 6 0 -6 -13 -25 -29z m-3419 -45 c24 -14 40 -25 36 -25 -15 0 -75 28 -81
39 -10 16 -3 14 45 -14z m94 -35 l20 -9 -20 0 c-11 0 -27 4 -35 9 -13 9 -13
10 0 9 8 0 24 -4 35 -9z m1911 -5 c-11 -8 -22 -12 -25 -9 -6 6 19 24 34 24 6
-1 1 -7 -9 -15z m675 -19 c-35 -38 -140 -85 -201 -91 l-55 -5 55 13 c61 15
139 53 185 91 37 30 47 25 16 -8z m-2875 -81 c32 -4 109 -15 169 -25 61 -10
161 -19 224 -19 62 -1 134 -6 160 -12 46 -10 80 -25 71 -31 -9 -6 -504 9 -530
16 -20 6 -22 5 -9 -3 31 -20 152 -31 341 -31 103 0 189 -4 192 -9 7 -11 -187
-26 -314 -23 -112 3 -194 19 -262 52 l-43 20 28 -22 c16 -13 47 -31 70 -40 23
-9 35 -17 26 -17 -30 -1 -89 29 -130 66 -49 45 -90 99 -68 91 9 -4 42 -9 75
-13z m1374 -544 c0 -330 4 -570 10 -585 13 -35 46 -51 77 -37 19 9 24 9 21 -1
-3 -7 -19 -17 -37 -22 -38 -11 -74 5 -90 41 -8 17 -11 197 -11 593 0 500 2
570 15 570 13 0 15 -69 15 -559z m1563 544 c-36 -63 -149 -145 -198 -144 -12
0 -3 7 20 15 22 8 54 25 70 39 29 24 27 24 -39 -6 -56 -25 -90 -32 -186 -40
-76 -6 -141 -6 -186 1 -38 5 -96 10 -129 10 -41 0 -55 4 -45 10 9 5 119 11
245 13 187 3 239 7 278 22 26 9 47 19 45 20 -2 2 -30 -3 -63 -10 -84 -19 -523
-26 -498 -7 32 23 90 32 205 33 63 0 139 4 169 9 30 4 106 16 169 25 63 9 117
19 119 21 2 2 11 4 18 4 9 0 11 -5 6 -15z m-3180 -2 c-7 -2 -21 -2 -30 0 -10
3 -4 5 12 5 17 0 24 -2 18 -5z m1757 -558 c0 -372 -3 -555 -10 -555 -5 0 -11
15 -11 33 -1 29 -2 28 -8 -11 -4 -23 -16 -49 -27 -57 -25 -19 -29 -18 -45 2
-12 15 -12 16 4 10 32 -12 57 26 57 87 0 34 5 56 13 59 8 4 8 8 2 14 -6 5 -8
61 -4 153 4 80 7 299 8 488 1 215 5 341 11 337 5 -3 9 -221 10 -560z m-623
503 c-3 -7 -5 -2 -5 12 0 14 2 19 5 13 2 -7 2 -19 0 -25z m331 10 c17 -17 15
-93 -3 -127 -24 -47 -121 -128 -199 -166 -131 -65 -247 -56 -284 22 -32 67 18
123 92 102 54 -15 81 -5 100 36 20 41 47 60 96 69 19 3 57 22 84 41 51 36 93
44 114 23z m545 -27 c32 -22 71 -42 87 -46 18 -4 44 -24 66 -50 43 -53 60 -60
114 -45 34 9 46 8 66 -5 51 -33 36 -118 -27 -151 -130 -67 -449 118 -449 260
0 87 50 100 143 37z m-2050 4 c65 -8 135 -15 156 -15 46 0 141 -27 141 -40 0
-6 -12 -10 -27 -10 -37 1 -198 16 -248 25 -27 4 -35 3 -25 -3 8 -6 50 -16 93
-22 46 -8 77 -18 77 -25 0 -6 11 -22 25 -35 29 -27 32 -44 8 -36 -10 3 -38 10
-63 17 -25 6 -39 14 -31 17 10 3 -48 36 -183 100 -5 3 -6 0 -2 -6 4 -6 35 -28
69 -48 34 -20 53 -33 42 -29 -61 19 -228 148 -170 131 11 -3 73 -12 138 -21z
m3577 18 c-1 -14 -98 -87 -152 -115 -81 -42 -82 -33 -1 12 39 22 75 45 79 51
4 7 3 10 -2 7 -149 -71 -194 -97 -178 -100 11 -2 -10 -11 -46 -20 -35 -9 -66
-16 -67 -14 -2 1 11 21 29 44 29 38 37 42 102 53 39 6 78 16 86 21 11 7 7 8
-13 3 -35 -7 -211 -24 -254 -25 -18 0 -33 4 -33 10 0 15 97 38 195 45 50 4
124 13 165 20 41 7 78 13 83 14 4 0 7 -2 7 -6z m-1976 -32 c3 -5 6 -240 7
-522 0 -460 2 -518 17 -548 21 -43 57 -69 102 -76 19 -3 30 -3 23 1 -8 3 -1
15 20 34 28 25 32 35 38 106 4 44 8 285 8 536 1 445 4 489 31 462 5 -5 10
-252 12 -549 l3 -540 28 -47 c31 -53 22 -62 -34 -33 -19 10 -35 13 -46 7 -11
-6 -12 -11 -4 -16 24 -15 5 -185 -26 -232 -16 -26 -100 -51 -116 -35 -7 7 -23
3 -48 -9 -45 -24 -49 -29 -53 -76 -1 -20 -9 -42 -17 -48 -8 -6 -14 -18 -12
-26 1 -8 4 -36 8 -61 3 -26 12 -54 19 -64 12 -16 14 -17 38 -1 14 9 56 51 93
93 l69 76 -46 -7 c-121 -18 -22 76 260 248 16 10 16 -18 -1 -36 -6 -7 -32 -38
-57 -68 -25 -30 -47 -57 -50 -60 -6 -5 -34 -63 -71 -147 -14 -30 -29 -51 -36
-48 -7 2 -15 -5 -19 -17 -17 -53 -77 -93 -155 -102 -61 -8 -71 -2 -104 64 -14
28 -16 49 -11 117 6 80 3 91 -20 75 -30 -20 -36 -58 -38 -251 -1 -127 -5 -203
-13 -216 -11 -19 -12 -19 -23 9 -22 59 -32 125 -38 266 l-7 145 -33 -2 c-18 0
-48 -11 -66 -24 -34 -23 -98 -111 -103 -139 -1 -8 -13 -24 -26 -35 -14 -11
-32 -37 -42 -58 -9 -20 -21 -37 -25 -37 -10 0 23 114 53 183 14 31 25 57 24
58 -1 0 -10 2 -20 4 -18 3 -46 32 -47 47 0 4 21 8 48 10 l47 3 46 91 c99 195
141 269 155 277 8 4 14 16 14 27 0 10 6 21 13 23 9 4 9 6 0 6 -20 2 -58 -57
-143 -222 -83 -160 -111 -194 -149 -182 -34 10 -43 69 -31 192 6 60 10 155 8
213 l-3 104 78 42 c43 24 108 67 145 96 37 30 90 68 117 85 112 69 125 58 125
-111 0 -111 -2 -126 -23 -157 -13 -20 -36 -37 -56 -43 -32 -9 -33 -11 -27 -50
3 -23 5 -103 5 -178 0 -83 4 -138 10 -138 39 0 60 21 76 77 16 57 98 205 139
252 20 23 20 23 1 13 -23 -12 -57 -48 -73 -77 -6 -11 -12 -15 -12 -9 0 6 11
28 25 49 14 20 22 35 18 33 -95 -41 -93 -39 -94 -87 0 -39 -2 -42 -10 -23 -5
13 -13 20 -19 17 -6 -3 -10 3 -10 15 0 16 -5 20 -15 16 -30 -11 -15 22 19 42
18 11 46 37 62 58 16 22 31 40 34 41 3 2 5 54 4 115 l-1 113 6 -90 c13 -194
21 -40 19 370 -2 338 -6 429 -15 428 -10 -2 -13 16 -13 66 0 38 3 76 6 85 7
18 20 21 28 7z m-2103 -27 l24 -27 -27 18 c-16 9 -28 21 -28 26 0 14 5 11 31
-17z m4444 -3 c-3 -6 -11 -11 -17 -11 -6 0 -6 6 2 15 14 17 26 13 15 -4z
m-1483 -42 c11 -14 21 -46 24 -70 l4 -44 -14 44 c-8 24 -27 57 -43 73 -23 25
-25 29 -9 27 10 -2 28 -16 38 -30z m-1572 11 c0 -11 4 -10 -215 -51 -93 -17
-203 -31 -243 -32 -53 -1 -66 -4 -50 -10 36 -14 182 -1 303 26 225 51 242 46
58 -15 -177 -59 -276 -62 -440 -12 -10 3 2 -6 27 -20 25 -14 38 -25 30 -25
-21 -1 -111 52 -138 82 l-23 24 88 6 c48 3 135 3 193 0 76 -3 139 1 230 15
145 23 180 26 180 12z m1859 -17 c64 -9 149 -14 220 -12 64 2 149 2 190 1 l74
-2 -24 -26 c-28 -31 -117 -84 -139 -83 -8 0 5 11 30 25 25 14 36 22 25 19
-152 -48 -256 -46 -426 9 -63 21 -120 40 -128 42 -8 2 -12 7 -9 10 3 3 50 -5
104 -16 173 -37 257 -50 319 -50 90 0 95 15 7 17 -99 3 -434 65 -440 82 -5 14
4 13 197 -16z m-1895 -62 c-16 -16 -285 -114 -374 -137 -61 -16 -76 -23 -51
-23 61 -2 179 37 384 124 68 29 30 -2 -70 -55 -109 -59 -214 -89 -318 -91
l-70 -1 60 -14 60 -13 -60 5 c-53 4 -139 36 -151 56 -3 4 8 10 23 13 15 3 62
14 103 25 41 11 104 24 140 30 36 5 124 29 195 54 124 41 150 47 129 27z
m2046 -81 c36 -6 99 -19 140 -30 41 -10 90 -23 109 -27 l34 -8 -55 -28 c-36
-18 -76 -30 -114 -32 l-59 -4 60 13 60 14 -70 1 c-103 2 -207 31 -317 91 -100
53 -140 84 -71 55 210 -90 323 -126 389 -124 32 1 24 4 -41 19 -99 23 -387
131 -392 147 -3 7 54 -8 129 -33 73 -24 162 -49 198 -54z m-185 -44 c44 -26
103 -55 131 -66 28 -10 80 -37 114 -59 34 -22 78 -46 96 -53 111 -40 -87 -31
-209 9 -66 22 -91 38 -160 98 -86 75 -133 124 -91 95 12 -8 59 -43 105 -78 85
-64 204 -130 216 -119 3 4 -11 14 -33 23 -62 26 -304 198 -304 216 0 10 19 0
135 -66z m-2302 57 c-7 -2 -19 -2 -25 0 -7 3 -2 5 12 5 14 0 19 -2 13 -5z
m427 -6 c-88 -71 -236 -175 -278 -195 -29 -13 -51 -27 -48 -29 3 -3 30 7 61
21 58 26 118 67 214 143 70 56 79 47 13 -12 -147 -133 -221 -167 -379 -180
-89 -8 -107 2 -45 24 20 8 63 31 96 53 32 22 75 46 95 53 49 17 148 67 207
105 48 30 96 43 64 17z m2203 6 c-7 -2 -19 -2 -25 0 -7 3 -2 5 12 5 14 0 19
-2 13 -5z m-2657 -22 c-5 -8 -101 -31 -143 -34 -18 -1 -22 -6 -17 -21 6 -18 2
-19 -77 -13 -49 3 -74 2 -59 -3 14 -4 57 -8 97 -9 71 -1 148 -25 137 -43 -7
-11 -78 -10 -89 1 -6 5 -48 15 -95 21 -46 6 -88 13 -91 16 -4 2 -9 0 -11 -5
-1 -5 -27 3 -57 18 l-54 28 104 7 c57 3 142 15 189 25 92 20 174 26 166 12z
m2815 -11 c52 -11 140 -23 197 -27 57 -3 99 -10 95 -14 -15 -14 -104 -49 -97
-37 5 7 2 9 -9 5 -8 -3 -53 -11 -99 -17 -46 -6 -87 -16 -92 -21 -13 -12 -86
-12 -86 0 0 22 65 41 139 42 42 0 85 4 96 9 13 5 -9 7 -60 7 -57 -2 -79 1 -78
10 3 13 -8 17 -95 34 -34 6 -65 16 -68 20 -9 15 58 10 157 -11z m-1651 -45 c0
-19 -2 -35 -5 -35 -9 0 -25 51 -19 61 12 20 24 7 24 -26z m355 26 c3 -6 -1
-25 -9 -43 l-14 -33 -1 43 c-1 39 10 54 24 33z m-1025 -21 c0 -13 -153 -167
-228 -229 -163 -133 -324 -160 -494 -84 -63 28 -74 43 -30 43 22 0 139 30 223
56 9 3 30 2 48 -3 l33 -8 -59 -24 c-93 -36 -103 -42 -63 -35 19 3 71 21 114
40 44 19 86 34 93 34 31 0 142 61 198 109 123 104 165 130 165 101z m649 -46
c16 -27 21 -52 21 -107 -1 -63 -2 -70 -14 -54 -18 23 -61 156 -53 163 3 4 15
-9 26 -27 12 -19 21 -28 21 -20 0 7 -9 29 -21 47 -11 19 -16 34 -11 34 6 0 19
-16 31 -36z m390 -4 c-12 -22 -20 -42 -17 -46 4 -3 14 8 23 26 9 18 19 29 22
26 8 -7 -33 -137 -51 -161 -14 -18 -15 -15 -16 48 0 68 8 95 38 130 24 28 25
20 1 -23z m-1019 3 c-1 -14 -30 -47 -133 -151 -118 -120 -204 -185 -279 -212
-29 -10 -43 -19 -32 -19 72 -3 161 56 319 209 197 192 224 187 55 -10 -99
-116 -117 -131 -189 -169 -44 -23 -83 -40 -88 -39 -4 1 -33 -4 -64 -11 -31 -8
-84 -12 -118 -9 -40 3 -58 1 -52 -5 18 -18 162 -20 216 -3 27 8 51 13 53 11 2
-2 -28 -14 -68 -26 -53 -16 -87 -20 -129 -16 -53 5 -161 42 -161 56 0 3 35 14
78 24 85 19 211 76 296 132 31 20 106 84 167 141 103 96 130 116 129 97z
m1756 -94 c59 -55 134 -119 167 -141 86 -59 211 -115 300 -135 42 -10 77 -21
77 -24 0 -14 -107 -52 -161 -56 -42 -4 -76 0 -129 16 -40 12 -70 24 -68 26 2
2 26 -2 53 -10 59 -18 170 -19 210 -1 27 12 24 13 -41 8 -43 -3 -93 1 -125 9
-30 7 -58 12 -62 11 -5 -1 -43 16 -86 38 -69 36 -90 54 -182 160 -117 136
-127 150 -104 150 9 0 73 -55 143 -123 70 -67 147 -136 172 -153 53 -36 121
-64 153 -63 14 0 6 6 -23 16 -79 27 -172 98 -297 226 -114 116 -138 147 -113
147 5 0 57 -45 116 -101z m-2143 84 c-7 -2 -19 -2 -25 0 -7 3 -2 5 12 5 14 0
19 -2 13 -5z m2430 0 c-7 -2 -19 -2 -25 0 -7 3 -2 5 12 5 14 0 19 -2 13 -5z
m434 1 c-3 -3 -12 -4 -19 -1 -8 3 -5 6 6 6 11 1 17 -2 13 -5z m-1897 -91 c26
-70 25 -101 -4 -138 -13 -16 -26 -28 -28 -25 -8 11 -48 189 -48 216 0 38 12
22 40 -54 27 -73 36 -77 16 -6 -30 105 -29 101 -12 80 9 -11 25 -44 36 -73z
m506 31 c-9 -26 -16 -57 -15 -68 0 -12 10 7 22 41 43 120 50 83 15 -69 -13
-54 -26 -98 -31 -98 -4 0 -16 15 -28 33 -25 40 -21 84 15 163 31 67 45 66 22
-2z m-2366 21 c14 -16 10 -18 -14 -9 -9 3 -16 10 -16 15 0 14 16 11 30 -6z
m4210 -5 c-24 -15 -37 -11 -16 5 11 8 22 12 25 9 3 -3 -1 -9 -9 -14z m-2445
-42 c9 -24 19 -75 22 -114 6 -69 5 -71 -28 -109 l-34 -38 -6 69 c-4 38 -10 99
-14 137 -11 91 8 88 29 -5 l15 -73 -4 65 c-3 36 -8 75 -11 88 -11 39 13 24 31
-20z m691 17 c-3 -13 -8 -53 -11 -87 l-5 -63 16 65 c25 100 38 100 28 0 -4
-47 -9 -107 -10 -133 -1 -26 -4 -50 -6 -52 -2 -3 -18 9 -34 26 -26 27 -29 37
-29 92 0 67 29 177 46 177 7 0 9 -10 5 -25z m-1124 -33 c-16 -20 -58 -80 -94
-132 -70 -100 -118 -155 -183 -208 l-40 -33 34 17 c57 27 124 98 214 227 100
142 112 157 121 157 15 0 2 -32 -60 -155 -79 -157 -113 -203 -182 -248 -60
-41 -111 -52 -185 -42 l-52 8 25 16 c49 32 115 98 218 221 132 157 193 221
204 214 5 -3 -4 -22 -20 -42z m1671 -127 c86 -106 202 -226 252 -261 l30 -22
-56 -7 c-85 -11 -154 13 -223 76 -47 43 -68 75 -133 204 -43 85 -74 157 -70
162 10 9 23 -7 119 -147 82 -118 167 -209 218 -234 l35 -17 -40 33 c-22 18
-55 49 -73 68 -45 46 -222 296 -222 312 0 19 73 -56 163 -167z m-1415 13 c0
-97 -3 -132 -17 -163 -19 -43 -71 -94 -123 -121 -35 -18 -35 -21 -4 62 8 23
27 105 42 181 25 135 37 174 48 162 9 -9 -12 -208 -28 -269 -8 -30 -13 -56
-11 -58 9 -10 39 109 50 206 8 62 17 117 20 122 16 25 22 -8 23 -122z m85 118
c17 -43 27 -178 17 -215 -10 -38 -53 -101 -69 -101 -11 0 -13 293 -2 309 7 11
11 6 15 -20 25 -164 25 -162 23 -56 -2 91 3 117 16 83z m861 -83 c-2 -65 -1
-89 5 -73 5 14 10 45 10 70 2 62 11 96 22 78 12 -18 11 -295 0 -302 -14 -9
-59 51 -71 95 -15 54 8 229 30 229 4 0 6 -44 4 -97z m111 -33 c17 -126 31
-186 44 -194 4 -3 2 18 -5 47 -16 64 -33 257 -22 263 9 6 20 -35 53 -206 15
-74 35 -150 46 -169 11 -18 18 -36 15 -38 -8 -9 -95 48 -125 83 -41 46 -50 89
-47 219 4 133 3 132 16 119 5 -5 17 -61 25 -124z m-1210 98 c-15 -52 -69 -196
-86 -229 -10 -20 -34 -57 -53 -82 -43 -56 -31 -63 14 -9 35 42 89 150 115 232
34 105 65 143 65 80 0 -45 -46 -222 -69 -268 -37 -73 -126 -133 -220 -148
l-43 -7 47 59 c25 32 72 115 104 184 31 69 69 144 84 168 29 45 53 57 42 20z
m1294 4 c5 -10 27 -66 49 -124 40 -104 76 -173 115 -215 39 -43 38 -23 -1 30
-22 28 -50 75 -62 102 -31 71 -81 218 -75 223 13 13 43 -35 120 -193 47 -94
102 -191 122 -215 l37 -43 -44 7 c-103 16 -192 82 -232 174 -19 42 -58 213
-58 253 0 24 16 25 29 1z m-308 -388 c75 -50 186 -142 192 -159 6 -14 -7 -29
-30 -36 -7 -2 17 -4 55 -4 103 -1 157 -13 187 -41 25 -23 27 -30 22 -75 -3
-27 -16 -63 -27 -79 -12 -17 -18 -30 -14 -30 4 0 -2 -9 -14 -20 -12 -12 -22
-26 -22 -32 0 -6 -11 -21 -25 -34 -14 -13 -25 -27 -25 -31 0 -5 -9 -14 -20
-21 -12 -7 -18 -18 -14 -24 4 -7 3 -8 -4 -4 -7 4 -12 1 -12 -8 0 -8 -9 -18
-20 -21 -11 -3 -20 -13 -20 -21 0 -8 -3 -14 -8 -14 -4 0 -18 -18 -32 -40 -13
-21 -26 -37 -28 -35 -7 7 -41 -29 -35 -38 3 -5 -16 -30 -42 -57 -26 -26 -53
-58 -61 -71 -7 -13 -18 -33 -25 -44 -6 -11 -24 -31 -41 -44 -23 -18 -32 -21
-38 -11 -4 7 -13 9 -19 6 -6 -4 -11 -3 -11 3 0 5 5 13 10 16 6 3 9 36 8 73 -1
37 4 76 10 87 16 28 89 255 98 302 10 58 21 73 55 73 39 0 43 -14 32 -105 -5
-41 -7 -75 -4 -75 16 0 188 216 224 282 34 65 27 73 -61 72 -73 -1 -125 -24
-173 -76 -14 -15 -31 -28 -37 -28 -7 0 -12 -4 -12 -10 0 -12 -92 -40 -117 -35
-10 2 -21 4 -25 4 -18 2 -6 41 15 52 19 11 95 67 122 92 6 5 -4 2 -22 -7 -57
-29 -94 -20 -112 27 -14 36 -14 232 -1 258 16 30 61 24 121 -17z m1372 -121
c-7 -2 -19 -2 -25 0 -7 3 -2 5 12 5 14 0 19 -2 13 -5z m-648 -143 c13 -6 15
-9 5 -9 -8 0 -22 4 -30 9 -18 12 -2 12 25 0z m-472 -71 c14 -22 -4 -64 -48
-112 -44 -48 -80 -48 -108 0 -17 29 -17 34 -2 62 29 58 133 90 158 50z m-420
-48 c-2 -3 -16 8 -31 24 l-27 28 31 -24 c17 -13 30 -26 27 -28z m-238 -431 c0
-18 -6 -26 -23 -28 -27 -4 -40 22 -22 44 19 22 45 13 45 -16z m235 -145 c4 3
10 -4 13 -14 4 -15 -14 -36 -73 -85 -43 -36 -81 -66 -84 -66 -4 0 3 19 15 42
24 46 112 141 117 127 2 -5 7 -7 12 -4z"/>
<path d="M4816 3455 c-9 -26 -7 -32 5 -12 6 10 9 21 6 23 -2 3 -7 -2 -11 -11z"/>
<path d="M2892 3465 l2 -130 6 125 c4 85 7 106 9 65 2 -33 7 -105 11 -160 6
-96 7 -94 8 67 2 161 1 167 -18 165 -19 -1 -20 -8 -18 -132z"/>
<path d="M2050 3225 c0 -237 4 -365 10 -365 6 0 10 128 10 365 0 237 -4 365
-10 365 -6 0 -10 -128 -10 -365z"/>
<path d="M2784 3564 c3 -9 6 -100 7 -202 1 -109 4 -177 9 -162 4 14 8 105 9
203 1 156 -1 177 -15 177 -11 0 -14 -5 -10 -16z"/>
<path d="M2498 3478 l-3 -92 -32 -8 c-18 -5 -35 -12 -38 -18 -3 -5 9 -4 27 2
41 13 57 14 86 4 22 -7 22 -7 22 98 l0 106 -30 0 -29 0 -3 -92z"/>
<path d="M2824 3115 c0 -60 1 -84 3 -52 2 32 2 81 0 110 -2 29 -3 3 -3 -58z"/>
<path d="M1348 3200 c18 -12 85 -44 150 -70 169 -68 221 -94 275 -135 26 -21
44 -30 41 -21 -6 16 -83 70 -144 101 -29 15 -290 123 -340 141 -8 3 0 -4 18
-16z"/>
<path d="M1780 2436 c21 -21 100 -35 147 -26 36 7 35 8 -18 9 -31 0 -76 8
-100 16 -39 14 -42 14 -29 1z"/>
<path d="M3555 3183 c-44 -19 -132 -57 -195 -84 -106 -46 -220 -122 -205 -137
3 -3 20 8 38 25 39 38 118 81 217 118 94 35 240 102 240 109 0 9 -10 6 -95
-31z"/>
<path d="M3160 2435 c-19 -7 -60 -14 -90 -15 -51 -2 -53 -3 -21 -10 19 -5 51
-6 70 -3 35 6 91 29 91 38 0 7 -11 5 -50 -10z"/>
<path d="M3773 3077 c-29 -24 -102 -62 -150 -78 -23 -7 -21 -8 12 -3 44 6 131
52 160 84 24 27 13 25 -22 -3z"/>
<path d="M3540 2983 c-8 -3 -26 -10 -39 -15 -42 -15 -10 -32 46 -23 36 6 43 9
28 15 -19 7 -19 7 0 18 20 11 20 11 0 11 -11 0 -27 -3 -35 -6z"/>
<path d="M377 2491 c50 -45 144 -93 233 -118 89 -25 406 -26 460 -1 35 16 34
16 -54 10 -70 -4 -88 -3 -81 7 5 10 2 11 -13 7 -26 -9 -251 -10 -259 -2 -4 3
20 6 52 6 32 0 56 2 54 4 -2 2 -45 9 -95 15 -98 12 -210 46 -281 86 -62 34
-65 31 -16 -14z"/>
<path d="M656 1969 c35 -39 190 -89 277 -89 85 0 249 51 278 86 7 8 -12 3 -45
-11 -65 -29 -73 -30 -57 -11 8 10 -10 7 -64 -10 -42 -13 -90 -24 -108 -23
l-32 1 40 13 c38 13 36 13 -50 9 -80 -4 -99 -2 -172 24 -66 22 -79 25 -67 11z"/>
<path d="M1365 1871 c-22 -16 -43 -27 -47 -25 -4 3 -39 -12 -79 -31 -39 -20
-74 -34 -77 -30 -4 3 0 10 8 15 23 15 -1 12 -54 -6 -34 -12 -70 -15 -126 -12
-86 5 -96 -3 -26 -21 63 -16 173 -14 234 4 62 19 157 73 191 109 31 33 26 32
-24 -3z"/>
<path d="M1470 1760 c-9 -6 -10 -10 -3 -10 6 0 15 5 18 10 8 12 4 12 -15 0z"/>
<path d="M4567 2501 c-67 -39 -166 -69 -277 -85 -92 -13 -93 -14 -36 -15 33 0
57 -4 53 -7 -8 -8 -233 -7 -259 2 -15 4 -18 3 -13 -7 7 -10 -11 -11 -81 -7
-88 6 -89 6 -54 -10 28 -13 71 -16 220 -17 177 0 189 1 273 29 88 29 185 83
221 124 25 28 12 26 -47 -7z"/>
<path d="M3611 2264 c8 -9 43 -31 79 -47 81 -37 213 -49 270 -24 35 15 34 15
-40 10 -58 -4 -89 0 -137 15 -35 11 -60 16 -57 11 9 -15 -6 -10 -69 22 -42 21
-56 25 -46 13z"/>
<path d="M4265 1962 c-53 -23 -73 -26 -167 -26 -59 0 -106 -2 -104 -4 2 -2 26
-7 53 -12 l48 -8 -47 -1 c-26 0 -81 10 -123 23 -54 17 -72 20 -64 10 15 -19 9
-18 -47 6 -66 29 -69 16 -3 -14 121 -55 229 -68 337 -41 69 18 152 56 171 79
16 19 19 20 -54 -12z"/>
<path d="M3585 1871 c17 -18 67 -51 112 -73 64 -32 96 -42 151 -46 84 -6 173
4 197 22 15 11 5 12 -63 8 -58 -3 -93 0 -128 12 -59 20 -74 20 -48 1 36 -27
-7 -16 -77 21 -38 20 -72 34 -76 30 -3 -3 -20 5 -37 17 -52 39 -62 42 -31 8z"/>
<path d="M2602 2078 c2 -288 6 -378 16 -396 8 -13 16 -21 20 -18 3 4 0 12 -6
18 -9 9 -12 112 -12 390 0 256 -3 378 -10 378 -8 0 -10 -118 -8 -372z"/>
<path d="M2367 1691 c-3 -16 -13 -36 -22 -45 -20 -20 -17 -20 27 -2 19 8 45
12 56 9 31 -8 27 -1 -17 35 l-39 31 -5 -28z"/>
<path d="M2562 1688 c-18 -18 -15 -25 14 -31 19 -3 24 -1 20 10 -3 8 -6 19 -6
24 0 13 -14 11 -28 -3z"/>
<path d="M2466 1546 c-32 -39 -118 -196 -111 -204 1 -1 18 4 37 12 23 10 41
27 53 52 24 51 67 176 62 180 -2 3 -21 -16 -41 -40z"/>
<path d="M2054 1308 c-16 -24 -33 -46 -38 -49 -18 -13 12 -18 47 -7 35 11 37
14 37 55 0 24 -4 43 -9 43 -4 0 -21 -19 -37 -42z"/>
<path d="M1310 2250 c-57 -31 -75 -36 -66 -21 3 5 -13 2 -37 -6 -58 -21 -143
-27 -197 -15 -40 10 -43 9 -26 -3 51 -38 199 -32 297 12 35 16 70 37 78 46 17
22 17 21 -49 -13z"/>
<path d="M1646 2153 c-8 -16 -22 -35 -31 -43 -13 -11 -15 -10 -9 6 4 10 -7 1
-23 -21 -40 -53 -68 -78 -123 -109 -58 -33 -25 -34 39 -2 67 34 187 173 167
193 -2 3 -11 -8 -20 -24z"/>
<path d="M3300 2172 c0 -13 51 -85 89 -125 40 -43 124 -90 149 -84 13 3 9 7
-12 16 -46 19 -85 50 -126 102 -21 27 -40 44 -42 37 -2 -6 -14 5 -27 25 -22
36 -31 45 -31 29z"/>
<path d="M1944 2163 c-4 -27 -13 -65 -20 -85 -18 -51 0 -48 20 3 22 54 32 129
18 129 -6 0 -14 -21 -18 -47z"/>
<path d="M3005 2207 c-11 -25 12 -121 35 -149 21 -25 26 -18 10 13 -6 10 -17
50 -24 87 -9 49 -15 62 -21 49z"/>
<path d="M1810 2170 c0 -6 -14 -41 -32 -78 -18 -37 -34 -71 -36 -77 -3 -5 5
-2 16 9 42 37 89 156 62 156 -5 0 -10 -5 -10 -10z"/>
<path d="M3140 2163 c0 -30 46 -117 75 -143 l27 -25 -30 55 c-16 30 -35 72
-42 93 -12 38 -30 50 -30 20z"/>
<path d="M3010 1375 c-13 -14 -31 -27 -42 -31 -28 -8 -22 -19 13 -21 18 -1 29
0 26 4 -3 3 4 14 16 24 16 13 18 18 7 19 -13 0 -13 1 0 10 8 5 12 11 9 14 -3
3 -16 -5 -29 -19z"/>
<path d="M2948 1309 c-10 -5 -18 -19 -18 -29 0 -10 -5 -22 -12 -26 -7 -4 -8
-3 -4 4 4 7 1 12 -6 12 -10 0 -9 3 2 10 8 5 12 12 8 15 -3 4 -18 -6 -32 -21
-14 -16 -23 -30 -20 -33 3 -3 9 1 14 9 8 12 10 12 10 2 0 -8 -9 -16 -20 -19
-27 -7 -25 -19 3 -18 12 0 32 9 45 20 12 11 28 20 35 20 7 0 12 9 12 20 1 11
4 26 8 33 10 14 -1 15 -25 1z"/>
<path d="M2889 1183 c-13 -16 -12 -17 4 -4 9 7 17 15 17 17 0 8 -8 3 -21 -13z"/>
<path d="M2845 1140 c-3 -5 -2 -10 4 -10 5 0 13 5 16 10 3 6 2 10 -4 10 -5 0
-13 -4 -16 -10z"/>
<path d="M2250 3858 c128 -9 607 -4 617 6 3 3 -162 5 -368 4 -310 -1 -352 -3
-249 -10z"/>
<path d="M2050 3825 c0 -14 5 -25 10 -25 6 0 10 11 10 25 0 14 -4 25 -10 25
-5 0 -10 -11 -10 -25z"/>
<path d="M3284 1448 c-16 -24 -33 -46 -38 -49 -18 -13 12 -18 47 -7 35 11 37
14 37 55 0 24 -4 43 -9 43 -4 0 -21 -19 -37 -42z"/>
<path d="M3580 1453 c-14 -9 -27 -19 -30 -22 -8 -10 -54 -29 -81 -35 -44 -9
-51 -45 -53 -260 -1 -133 -5 -199 -13 -207 -28 -28 -52 79 -61 271 l-7 145
-33 -2 c-18 0 -48 -11 -66 -24 -34 -23 -98 -111 -103 -139 -1 -8 -13 -24 -26
-35 -19 -16 -57 -77 -57 -92 0 -1 6 -3 14 -3 16 0 68 61 110 128 15 23 36 52
46 62 23 23 62 26 79 6 6 -7 17 -78 23 -156 11 -141 11 -144 -10 -161 -12 -9
-22 -19 -22 -21 0 -1 30 -3 67 -3 38 -1 95 -4 128 -8 33 -3 47 -3 31 1 -16 4
-38 20 -50 35 -19 26 -21 41 -20 185 1 183 7 202 77 248 61 40 97 74 97 91 0
17 -11 16 -40 -4z"/>
<path d="M1432 1443 c-19 -36 -61 -190 -72 -263 -32 -220 -35 -266 -17 -294
21 -31 66 -35 90 -8 9 10 30 47 46 83 32 70 56 89 115 89 19 0 39 -7 46 -15 7
-8 16 -54 21 -103 15 -146 31 -229 51 -263 10 -17 21 -29 24 -26 3 3 -4 43
-15 89 -21 79 -44 299 -40 363 2 17 1 71 0 120 -3 68 -5 81 -10 55 -11 -51
-79 -180 -96 -181 -8 -1 -20 -2 -27 -3 -6 -1 -13 6 -15 14 -2 8 -13 59 -26
112 -12 54 -25 98 -28 98 -12 0 -19 -90 -9 -115 6 -16 6 -25 0 -25 -6 0 -10
-8 -10 -17 0 -15 -2 -16 -10 -3 -5 8 -10 11 -11 5 0 -5 -2 -20 -5 -32 -3 -18
0 -21 14 -16 15 6 15 5 2 -11 -19 -24 -21 -46 -4 -46 27 0 26 -30 -2 -90 -32
-64 -68 -95 -85 -70 -11 18 -3 113 18 230 9 47 16 104 15 128 -1 23 2 42 7 42
7 0 22 47 40 133 9 40 7 47 -7 20z"/>
<path d="M1681 1324 c0 -11 3 -14 6 -6 3 7 2 16 -1 19 -3 4 -6 -2 -5 -13z"/>
<path d="M3223 903 c9 -2 25 -2 35 0 9 3 1 5 -18 5 -19 0 -27 -2 -17 -5z"/>
<path d="M2855 879 c-20 -10 -48 -29 -60 -42 l-24 -23 49 6 c26 3 54 11 62 17
7 6 33 15 58 20 l45 9 -47 15 c-43 15 -49 14 -83 -2z"/>
<path d="M3128 893 c7 -3 16 -2 19 1 4 3 -2 6 -13 5 -11 0 -14 -3 -6 -6z"/>
<path d="M3588 883 c6 -2 18 -2 25 0 6 3 1 5 -13 5 -14 0 -19 -2 -12 -5z"/>
<path d="M3285 838 c-139 -6 -249 -21 -335 -47 -19 -6 -93 -27 -165 -47 -71
-20 -154 -48 -184 -61 -43 -18 -56 -21 -63 -11 -5 9 7 27 39 56 54 49 56 49
-92 2 -49 -16 -130 -41 -180 -56 -49 -14 -116 -39 -147 -55 -65 -33 -76 -35
-58 -14 10 12 10 19 1 28 -8 8 -16 6 -33 -11 -19 -19 -20 -22 -5 -22 41 0 5
-32 -38 -35 -28 -1 -27 36 1 67 25 27 48 68 41 74 -2 3 -21 -18 -41 -47 -42
-57 -56 -86 -38 -75 15 9 15 1 1 -26 -9 -16 -8 -23 2 -29 27 -17 63 -9 158 35
194 89 305 110 389 75 29 -12 40 -11 125 19 132 46 337 100 443 117 55 9 168
16 280 16 183 1 234 -3 449 -42 120 -22 125 -22 125 -5 0 9 -7 16 -16 16 -8 0
-13 4 -10 9 9 14 -20 21 -34 8 -10 -9 -11 -9 -6 1 8 13 -32 34 -47 25 -5 -3
-17 3 -28 13 -10 9 -19 12 -19 6 0 -6 6 -13 13 -15 27 -11 -29 -6 -136 12
-140 25 -204 28 -392 19z"/>
<path d="M2327 781 c-17 -6 -17 -8 -4 -19 11 -9 17 -10 22 -2 3 6 12 7 18 3 7
-4 6 0 -2 10 -7 9 -14 17 -15 16 0 0 -9 -4 -19 -8z"/>
</g>
</svg>
